<?xml version="1.0" encoding="utf-8"?>
<!-- Generator: Adobe Illustrator 24.2.3, SVG Export Plug-In . SVG Version: 6.00 Build 0)  -->
<svg version="1.1" id="Layer_1" xmlns="http://www.w3.org/2000/svg" xmlns:xlink="http://www.w3.org/1999/xlink" x="0px" y="0px"
	 viewBox="0 0 40 40" style="enable-background:new 0 0 40 40;" xml:space="preserve">
<style type="text/css">
	.st0{fill:#F1AF17;}
</style>
<circle cx="20" cy="20" r="18"/>
<path class="st0" d="M15.55,25.13l-0.12,1.03c0,1.08,0.36,1.81,1.08,2.21c0.25,0.13,0.55,0.2,0.9,0.2c0.35,0,0.66-0.06,0.94-0.17
	c0.28-0.12,0.5-0.29,0.68-0.48c0.37-0.4,0.56-0.86,0.56-1.39c0-0.53-0.11-1-0.32-1.43c-0.21-0.43-0.48-0.86-0.8-1.28l-1.07-1.31
	c-0.86-1.03-1.44-1.97-1.74-2.82c-0.29-0.86-0.44-1.64-0.44-2.35s0.08-1.39,0.25-2.02c0.18-0.64,0.42-1.25,0.74-1.82
	c0.31-0.58,0.69-1.11,1.12-1.59c0.44-0.48,0.92-0.9,1.46-1.24C19.9,9.91,21,9.54,22.1,9.54c1.1,0,1.95,0.15,2.57,0.45
	c0.61,0.3,1.11,0.69,1.48,1.15c0.69,0.87,1.04,1.93,1.04,3.17c0,1.15-0.33,2.23-0.98,3.25c-0.6,0.93-1.27,1.51-2,1.76
	c-0.16,0.08-0.38,0.12-0.67,0.12c-0.28,0-0.51-0.04-0.71-0.12c-0.19-0.09-0.35-0.2-0.49-0.35c-0.31-0.31-0.47-0.65-0.47-1.02
	c0-0.25,0.08-0.41,0.23-0.49c0.68-0.37,1.27-0.9,1.76-1.59c0.54-0.76,0.83-1.51,0.86-2.26c0.03-0.76-0.16-1.31-0.55-1.67
	c-0.38-0.37-0.9-0.55-1.54-0.55c-0.64,0-1.22,0.15-1.74,0.44c-0.52,0.29-0.96,0.67-1.34,1.16c-0.8,1.05-1.2,2.29-1.2,3.73
	c0,0.95,0.33,1.96,0.99,3.02c0.28,0.45,0.57,0.9,0.9,1.35c0.33,0.44,0.64,0.89,0.92,1.35c0.65,1.08,0.98,2.04,0.98,2.9
	c0,0.86-0.16,1.58-0.47,2.17c-0.3,0.59-0.71,1.1-1.22,1.54c-1.1,0.94-2.34,1.42-3.74,1.42c-1.32,0-2.33-0.39-3.05-1.18
	c-0.57-0.63-0.86-1.32-0.86-2.06c0-0.8,0.23-1.48,0.68-2.03c0.35-0.42,0.68-0.67,1-0.75C15.2,24.26,15.55,24.49,15.55,25.13z"/>
</svg>
