<svg width="1040" height="1041" viewBox="0 0 1040 1041" fill="none" xmlns="http://www.w3.org/2000/svg">
<g clip-path="url(#clip0)">
<g filter="url(#filter0_d)">
<path d="M567.571 1.22829C535.918 2.13266 504.265 5.75013 473.155 12.0807C246.882 58.0226 78.67 237.449 52.9859 467.52C27.3019 697.772 169.107 978.668 409.126 1032.39C522.172 1057.71 646.432 1026.42 734.336 950.814C830.018 868.336 877.226 744.437 920.636 625.784C956.449 528.113 992.804 427.547 990.091 323.545C984.122 99.6234 769.245 -4.55966 567.571 1.22829Z" fill="url(#paint0_radial)"/>
</g>
<path fill-rule="evenodd" clip-rule="evenodd" d="M642.12 217.615C660.725 217.662 675.769 232.781 675.723 251.385L675.274 432.169C675.228 450.774 660.108 465.818 641.504 465.772C622.899 465.726 607.855 450.607 607.901 432.002L608.35 251.218C608.396 232.614 623.516 217.569 642.12 217.615ZM742.08 272.855C760.684 272.914 775.718 288.044 775.659 306.649L775.434 376.941C775.374 395.546 760.244 410.579 741.64 410.52C723.035 410.46 708.002 395.33 708.061 376.726L708.286 306.433C708.345 287.829 723.475 272.795 742.08 272.855ZM537.758 342.258C556.363 342.342 571.377 357.491 571.294 376.095L569.946 676.579C569.863 695.183 554.713 710.197 536.109 710.114C517.504 710.03 502.49 694.881 502.574 676.277L503.921 375.793C504.005 357.189 519.154 342.175 537.758 342.258ZM432.379 586.586C450.984 586.517 466.122 601.542 466.191 620.147L466.865 801.155C466.934 819.76 451.908 834.898 433.304 834.967C414.699 835.036 399.561 820.01 399.492 801.406L398.818 620.397C398.749 601.793 413.775 586.655 432.379 586.586ZM332.685 642.041C351.29 641.981 366.42 657.014 366.479 675.619L366.704 745.687C366.764 764.291 351.73 779.421 333.126 779.481C314.521 779.541 299.391 764.507 299.331 745.903L299.107 675.835C299.047 657.23 314.081 642.1 332.685 642.041Z" fill="white"/>
</g>
<defs>
<filter id="filter0_d" x="46" y="1" width="948.234" height="1048.03" filterUnits="userSpaceOnUse" color-interpolation-filters="sRGB">
<feFlood flood-opacity="0" result="BackgroundImageFix"/>
<feColorMatrix in="SourceAlpha" type="matrix" values="0 0 0 0 0 0 0 0 0 0 0 0 0 0 0 0 0 0 127 0"/>
<feOffset dy="4"/>
<feGaussianBlur stdDeviation="2"/>
<feColorMatrix type="matrix" values="0 0 0 0 0 0 0 0 0 0 0 0 0 0 0 0 0 0 0.25 0"/>
<feBlend mode="normal" in2="BackgroundImageFix" result="effect1_dropShadow"/>
<feBlend mode="normal" in="SourceGraphic" in2="effect1_dropShadow" result="shape"/>
</filter>
<radialGradient id="paint0_radial" cx="0" cy="0" r="1" gradientUnits="userSpaceOnUse" gradientTransform="translate(-17.4291 804.361) scale(1455.86)">
<stop offset="0.0103967" stop-color="#C5D1E7"/>
<stop offset="0.14061" stop-color="#82C0FF"/>
<stop offset="0.385412" stop-color="#A46DFF"/>
<stop offset="0.625005" stop-color="#FF8488"/>
<stop offset="0.791679" stop-color="#EEC14C"/>
</radialGradient>
<clipPath id="clip0">
<rect width="941" height="1041" fill="white" transform="translate(49)"/>
</clipPath>
</defs>
</svg>
